# xmcd
#
# Track frame offsets:
#	150
#	14010
#	44682
#	75932
#	90549
#	121749
#	150659
#	177004
#	189462
#	217599
#
# Disc length: 3220 seconds
#
# Revision: 1
# Processed by: cddbd v1.5.1PL0 Copyright (c) Steve Scherf et al.
# Submitted via: MusicManager 7.0.3.0 
#
DISCID=6e0c920a
DTITLE=Dave Burrell-Elaine Elias-Russell Gunn-Yusef Lateef-Pat Martino ... and more. - Jazz For Reading
DYEAR=2004
DGENRE=Jazz
TTITLE0=Moonlight in Vermont- Marian McPartland Trio
TTITLE1=Dignified Appearance- Tommy Flanagan
TTITLE2=Whisper Not- Bobby Hutcherson
TTITLE3=The Second Time Around- Red Garland
TTITLE4=You Don't Know What Love Is- Russell Gun
TTITLE5=Falling In Love With Love- Elaine Elias
TTITLE6=Stella By Starlight- Yusef Lateef
TTITLE7=Send In The Clowns- Pat Martino
TTITLE8=My Old Flame- Darrell Grant
TTITLE9=In A Sentimental Mood- Dave Burrell
EXTD=YEAR: 2004
EXTT0=
EXTT1=
EXTT2=
EXTT3=
EXTT4=
EXTT5=
EXTT6=
EXTT7=
EXTT8=
EXTT9=
PLAYORDER=
